<?xml version="1.0" standalone="no"?>
<!DOCTYPE svg PUBLIC "-//W3C//DTD SVG 20010904//EN"
 "http://www.w3.org/TR/2001/REC-SVG-20010904/DTD/svg10.dtd">
<svg version="1.0" xmlns="http://www.w3.org/2000/svg"
 width="512.000000pt" height="512.000000pt" viewBox="0 0 512.000000 512.000000"
 preserveAspectRatio="xMidYMid meet">

<g transform="translate(0.000000,512.000000) scale(0.100000,-0.100000)"
fill="#000000" stroke="none">
<path d="M1152 4720 c-51 -22 -33 -77 22 -65 142 29 356 -53 356 -137 0 -24
-28 -67 -64 -98 -76 -65 -215 -84 -294 -40 -46 26 -86 79 -77 101 3 8 23 27
45 42 22 16 40 35 40 43 0 22 -47 36 -73 22 -50 -26 -87 -62 -97 -94 -10 -30
-9 -39 12 -76 81 -148 348 -169 512 -41 187 146 43 326 -279 348 -44 3 -90 1
-103 -5z"/>
<path d="M1783 4172 c-6 -4 -15 -20 -18 -35 -6 -24 -12 -27 -52 -27 -24 0
-124 -13 -221 -30 -189 -32 -496 -70 -565 -70 -54 0 -76 -13 -62 -36 7 -11 8
-42 4 -83 -18 -162 -29 -393 -29 -596 0 -146 -7 -289 -20 -425 -15 -146 -20
-272 -19 -438 l1 -233 24 -16 c20 -13 41 -15 112 -9 243 19 384 24 417 15 71
-20 103 30 38 58 -39 16 -169 14 -414 -5 l-86 -7 -2 215 c-1 139 4 265 15 355
8 77 19 293 24 480 5 187 12 412 16 501 l7 161 126 12 c108 11 282 36 578 83
40 6 76 9 79 5 3 -3 -15 -79 -41 -169 -138 -475 -164 -617 -210 -1123 -9 -93
-27 -241 -41 -328 -13 -88 -24 -160 -24 -163 0 -13 42 -23 63 -15 21 8 27 20
36 74 25 147 41 271 56 437 43 484 62 588 203 1090 38 135 72 257 76 272 10
42 -34 73 -71 50z"/>
<path d="M3130 4169 c-47 -5 -135 -23 -197 -39 -189 -49 -255 -87 -217 -124
21 -21 46 -20 75 3 53 41 257 90 418 101 160 10 274 -1 398 -41 164 -52 263
-111 391 -233 271 -257 388 -561 354 -921 -14 -139 -33 -205 -100 -348 -66
-139 -126 -230 -212 -321 -62 -65 -87 -83 -183 -131 -230 -114 -455 -149 -674
-105 -243 49 -395 130 -573 308 -107 107 -202 238 -294 405 -83 151 -146 417
-131 555 16 145 64 306 128 426 37 70 159 196 246 255 65 44 70 51 46 71 -27
23 -78 2 -162 -65 -141 -113 -206 -199 -267 -354 -101 -256 -108 -464 -25
-715 22 -65 50 -137 61 -160 41 -80 142 -242 198 -316 70 -92 230 -247 308
-296 364 -235 795 -256 1192 -61 176 87 292 213 406 442 82 164 109 250 124
395 33 306 -48 598 -226 820 -196 244 -389 368 -674 436 -80 19 -296 26 -410
13z"/>
<path d="M3191 3458 c-39 -15 -57 -38 -48 -62 8 -21 45 -21 87 0 24 12 46 15
89 10 146 -17 267 -69 350 -149 61 -60 81 -99 81 -161 0 -109 -146 -231 -325
-271 -48 -11 -166 -6 -216 9 -119 36 -209 107 -257 205 -52 107 -33 222 51
303 47 45 44 68 -7 68 -73 0 -153 -112 -163 -229 -10 -103 43 -216 139 -300
236 -207 690 -146 839 113 35 62 39 138 10 201 -45 99 -201 208 -356 250 -82
22 -231 29 -274 13z"/>
<path d="M4524 1958 c-11 -13 -28 -41 -37 -63 -20 -46 -77 -322 -77 -371 0
-18 -6 -36 -12 -41 -7 -4 -103 -8 -213 -8 l-200 0 0 -25 c0 -23 5 -26 55 -32
30 -3 123 -6 205 -7 l150 -1 1 -193 c1 -116 8 -244 18 -324 20 -149 25 -124
-58 -276 -50 -91 -100 -138 -162 -153 -25 -5 -22 -2 17 24 26 16 59 47 75 68
26 33 29 45 29 108 -1 69 -4 77 -90 254 -70 144 -94 184 -112 188 -32 8 -158
-24 -176 -44 -8 -10 -24 -58 -35 -109 -23 -100 -87 -238 -147 -319 -63 -83
-127 -144 -152 -144 -13 0 -26 -8 -30 -17 -8 -21 -24 -34 -35 -27 -4 3 -8 27
-8 54 0 37 8 65 35 112 50 92 157 384 153 421 -4 36 -26 52 -60 44 -20 -5 -33
-28 -78 -134 -29 -70 -72 -182 -96 -250 -29 -87 -52 -136 -78 -168 -46 -55
-164 -141 -176 -129 -6 6 6 68 30 159 56 213 52 297 -18 390 -49 64 -112 97
-169 90 -24 -4 -43 -4 -43 -1 0 4 18 48 39 99 148 347 146 667 -3 667 -80 0
-150 -152 -196 -427 -19 -114 -41 -230 -55 -288 -4 -19 -12 -20 -142 -20 -123
0 -144 -3 -191 -24 -53 -24 -129 -97 -157 -151 -12 -23 -105 -109 -105 -97 0
3 7 21 15 40 31 74 7 121 -57 115 -28 -2 -39 -12 -70 -58 -20 -30 -46 -86 -59
-125 -12 -38 -25 -77 -29 -85 -13 -28 -145 -133 -198 -157 -62 -29 -72 -24
-97 42 -22 57 -15 141 19 229 21 55 26 83 24 135 -3 62 -5 66 -31 75 -22 8
-31 6 -46 -9 -21 -21 -56 -138 -66 -220 -8 -57 -34 -102 -96 -162 -44 -44 -59
-52 -59 -32 0 7 -35 45 -77 85 l-77 73 21 23 c39 43 56 88 50 136 -6 54 -31
90 -83 119 -69 40 -139 25 -187 -39 -55 -73 -47 -122 30 -194 l54 -52 -93 -69
c-138 -104 -146 -108 -203 -108 -48 0 -50 -1 -50 -28 -1 -25 -17 -46 -36 -47
-3 0 -9 51 -12 112 -5 109 -43 299 -81 405 l-14 41 156 -5 c239 -8 364 19 521
112 117 70 162 113 206 196 74 142 54 270 -59 377 -71 67 -138 99 -286 138
-79 20 -279 15 -405 -11 -103 -21 -284 -81 -310 -103 -59 -49 -89 -150 -84
-279 l4 -86 -55 -29 c-71 -37 -150 -58 -221 -58 -59 0 -86 -16 -75 -45 13 -34
226 -11 316 35 22 11 43 20 48 20 11 0 57 -118 49 -126 -3 -3 -23 4 -46 15
-43 22 -85 20 -95 -4 -7 -20 32 -65 57 -65 12 0 41 -8 64 -17 l43 -18 0 -61
c0 -151 -42 -262 -162 -430 -48 -67 -58 -88 -58 -121 0 -34 5 -45 33 -66 41
-31 126 -57 186 -57 25 0 78 8 116 17 39 9 86 16 105 15 19 0 41 5 50 12 8 8
44 28 79 46 l65 32 73 -16 c138 -30 334 -15 450 35 25 11 67 35 93 54 26 19
50 35 53 35 3 0 8 -12 12 -27 3 -15 16 -40 27 -55 11 -16 19 -30 17 -32 -2 -1
-42 -18 -87 -36 -139 -57 -168 -110 -116 -211 58 -115 165 -178 278 -166 135
15 224 71 265 168 24 55 60 207 61 252 0 20 9 33 32 47 l33 20 35 -33 c50 -48
78 -63 159 -87 92 -28 140 -22 218 29 52 34 151 128 216 206 l25 30 6 -25 c15
-69 26 -207 20 -246 -7 -52 6 -74 45 -74 40 0 51 18 51 82 0 88 66 435 93 488
43 83 104 78 160 -12 46 -75 47 -142 3 -312 -44 -170 -46 -219 -11 -242 54
-35 123 -18 221 57 56 43 64 46 64 25 0 -8 12 -24 27 -36 33 -25 87 -22 140
10 30 18 36 18 115 3 127 -24 415 -23 493 1 105 33 148 69 206 173 28 51 53
93 55 93 2 0 15 -22 28 -49 39 -77 128 -140 224 -160 68 -14 165 -14 179 0 16
16 -13 96 -38 104 -32 11 -59 -4 -59 -31 0 -19 -4 -24 -17 -20 -10 3 -35 8
-56 12 -60 10 -134 85 -181 183 l-40 81 22 92 c12 51 27 125 32 163 9 56 50
363 50 372 0 5 68 -10 103 -23 28 -11 43 -11 58 -3 48 25 -12 73 -105 84 l-48
7 7 161 c10 248 -11 337 -79 337 -13 0 -31 -10 -42 -22z m-3233 -184 c96 -30
141 -56 190 -111 94 -104 89 -237 -14 -365 -52 -65 -202 -153 -313 -183 -124
-33 -425 -28 -461 8 -7 7 -30 80 -51 162 -36 141 -38 153 -25 195 17 56 8 112
-23 149 l-24 29 21 25 c14 19 47 35 112 56 149 47 221 59 369 60 121 1 147 -2
219 -25z m3266 -71 c-4 -54 -7 -126 -7 -160 0 -60 -1 -63 -25 -63 -22 0 -25 4
-25 39 0 32 23 164 45 259 12 51 17 16 12 -75z m-1473 -30 c23 -141 -32 -388
-131 -588 -72 -146 -77 -140 -38 43 14 64 32 162 41 217 25 173 84 365 112
365 5 0 12 -17 16 -37z m1449 -288 c-5 -86 -37 -294 -44 -289 -12 7 -11 267 1
299 14 37 46 30 43 -10z m-386 -502 c91 -188 102 -242 60 -296 -33 -43 -123
-90 -216 -112 -57 -14 -95 -16 -164 -11 -50 3 -92 8 -95 11 -2 2 17 28 43 57
101 113 180 262 215 405 23 93 23 93 73 102 4 0 42 -70 84 -156z m-1596 101
c-18 -8 -36 -13 -39 -10 -6 7 37 25 58 25 8 -1 0 -7 -19 -15z m242 -86 c-6
-93 -6 -93 -57 -158 -69 -89 -171 -195 -229 -237 -56 -41 -88 -44 -169 -13
-54 20 -118 75 -118 101 0 6 21 34 46 63 26 28 60 75 76 103 42 74 137 131
310 189 73 24 136 44 140 44 4 0 5 -42 1 -92z m-2120 -35 c35 -142 47 -222 47
-311 0 -65 -3 -75 -26 -97 -51 -47 -198 -54 -265 -12 -34 21 -29 38 33 125 94
133 134 214 154 315 9 48 20 87 24 87 4 0 19 -48 33 -107z m582 101 c20 -8 45
-56 45 -86 0 -13 -9 -38 -20 -56 l-21 -33 -33 28 c-30 25 -56 62 -56 81 0 4 9
22 20 40 20 32 34 38 65 26z m886 -308 c-21 -47 -44 -64 -34 -23 7 25 43 80
49 74 3 -2 -4 -25 -15 -51z m-813 -36 c34 -34 62 -67 62 -75 0 -20 -63 -35
-150 -35 -93 0 -182 10 -178 20 3 9 190 149 198 150 3 0 34 -27 68 -60z m662
-154 c0 -2 -6 -37 -14 -78 -39 -200 -102 -268 -250 -268 -62 0 -105 26 -146
88 -55 84 -52 110 16 149 86 49 394 134 394 109z"/>
<path d="M3577 1403 c-13 -12 -7 -41 9 -47 44 -17 88 10 64 39 -13 15 -61 21
-73 8z"/>
</g>
</svg>
